# xmcd
#
# Track frame offsets: 
#        150
#        19192
#        57626
#        83131
#        104853
#        124446
#        164188
#
# Disc length: 2322 seconds
#
# Revision: 2
# Processed by: cddbd v1.5.2PL0 Copyright (c) Steve Scherf et al.
# Submitted via: ExactAudioCopy v1.0b1
#
DISCID=6b091007
DTITLE=Oliver Nelson - Big Band Live from Los Angeles
DYEAR=1967
DGENRE=Jazz
TTITLE0=Miss Fine
TTITLE1=Milestones
TTITLE2=I Remember Bird
TTITLE3=Night Train
TTITLE4=Guitar Blues
TTITLE5=Down By The Riverside
TTITLE6=Ja-da
EXTD=YEAR: 1967
EXTT0=
EXTT1=
EXTT2=
EXTT3=
EXTT4=
EXTT5=
EXTT6=
PLAYORDER=
